#!OML:ASF H:\Punching\Project 1\Capture day 1\Session 1\female.ASF
:FULLY-SPECIFIED
:DEGREES
2626
root -2.79083 15.6364 7.53817 13.8589 3.76557 2.00578
lowerback -3.67277 -1.38818 0.597423
upperback -6.82213 -1.82943 0.720905
thorax -4.99027 -0.92265 0.425751
lowerneck -12.1596 4.45773 9.19194
upperneck 23.033 6.1741 -7.91405
head 9.83118 2.82676 -3.56222
rclavicle 1.74185e-014 7.15625e-015
rhumerus -56.1412 -7.87386 -73.3139
rradius 36.3914
rwrist -3.28138
rhand -0.688507 -20.7068
rfingers 7.12502
rthumb 24.9307 -49.1007
lclavicle 1.74185e-014 7.15625e-015
lhumerus -69.7984 4.77759 87.7254
lradius 48.45
lwrist 14.6081
lhand -1.67149 24.1253
lfingers 7.12502
lthumb 23.9884 52.6465
rfemur -17.8185 2.49604 18.4685
rtibia 32.3562
rfoot -24.3036 -24.4127
rtoes 1.44263
lfemur -7.40822 -12.568 -15.6319
ltibia 16.5833
lfoot -18.6991 21.7725
ltoes -5.83154
2627
root -2.77113 15.6351 7.52036 13.9127 3.91617 1.99687
lowerback -3.71624 -1.4226 0.587043
upperback -6.87194 -1.87378 0.759251
thorax -5.01675 -0.943155 0.471302
lowerneck -12.1986 4.41868 9.17512
upperneck 23.1255 6.11858 -7.88847
head 9.86456 2.80146 -3.55864
rclavicle 1.03989e-014 -7.55382e-015
rhumerus -55.9019 -7.79929 -73.1106
rradius 36.7084
rwrist -2.52534
rhand -0.833144 -20.7414
rfingers 7.12502
rthumb 24.7921 -49.1544
lclavicle 1.03989e-014 -7.55382e-015
lhumerus -69.6085 4.70099 87.4299
lradius 48.9635
lwrist 14.9682
lhand -2.6527 24.5658
lfingers 7.12502
lthumb 23.0472 53.2077
rfemur -18.0026 2.38499 18.4215
rtibia 32.509
rfoot -24.3154 -24.4867
rtoes 1.49773
lfemur -7.3854 -13.0206 -15.6469
ltibia 16.263
lfoot -18.7649 22.0614
ltoes -5.3313
2628
root -2.75151 15.6328 7.50294 13.9485 4.04531 1.98506
lowerback -3.73544 -1.45253 0.582114
upperback -6.91727 -1.91194 0.797784
thorax -5.05235 -0.960802 0.514572
lowerneck -12.2308 4.37813 9.15772
upperneck 23.2088 6.06302 -7.8709
head 9.89361 2.7754 -3.55778
rclavicle 2.59662e-015 -4.77083e-015
rhumerus -55.6348 -7.74119 -72.862
rradius 37.0493
rwrist -1.64755
rhand -1.10589 -20.7127
rfingers 7.12502
rthumb 24.5307 -49.1614
lclavicle 2.59662e-015 -4.77083e-015
lhumerus -69.3937 4.63951 87.0658
lradius 49.5022
lwrist 15.0867
lhand -3.68843 24.8701
lfingers 7.12502
lthumb 22.0531 53.6327
rfemur -18.1713 2.28211 18.3756
rtibia 32.6658
rfoot -24.3319 -24.5442
rtoes 1.58602
lfemur -7.36025 -13.4903 -15.6667
ltibia 15.9943
lfoot -18.8617 22.3823
ltoes -4.83728
2629
root -2.73208 15.6295 7.48604 13.9703 4.14306 1.96847
lowerback -3.74011 -1.47452 0.582624
upperback -6.95442 -1.93951 0.835256
thorax -5.08774 -0.973438 0.553912
lowerneck -12.2653 4.3381 9.14417
upperneck 23.2831 6.00871 -7.86219
head 9.9205 2.74926 -3.56043
rclavicle 6.7711e-015 5.1684e-015
rhumerus -55.3359 -7.70361 -72.5721
rradius 37.4086
rwrist -0.627841
rhand -1.49032 -20.6251
rfingers 7.12502
rthumb 24.1622 -49.1233
lclavicle 6.7711e-015 5.1684e-015
lhumerus -69.1501 4.5878 86.6408
lradius 50.0802
lwrist 14.9539
lhand -4.73043 25.0737
lfingers 7.12502
lthumb 21.0524 53.951
rfemur -18.3319 2.18306 18.333
rtibia 32.83
rfoot -24.3408 -24.5854
rtoes 1.65668
lfemur -7.3311 -13.9667 -15.6946
ltibia 15.7676
lfoot -18.9837 22.75
ltoes -4.35909
2630
root -2.71296 15.6256 7.46943 13.9839 4.21468 1.94923
lowerback -3.73607 -1.49122 0.585169
upperback -6.98482 -1.95999 0.872898
thorax -5.12099 -0.982625 0.59238
lowerneck -12.3124 4.30321 9.12477
upperneck 23.3575 5.96128 -7.85101
head 9.95032 2.72576 -3.56016
rclavicle 3.92351e-014 -7.95139e-015
rhumerus -55.0065 -7.68247 -72.2427
rradius 37.7948
rwrist 0.499016
rhand -1.98218 -20.4392
rfingers 7.12502
rthumb 23.6905 -48.9993
lclavicle 3.92351e-014 -7.95139e-015
lhumerus -68.8941 4.53189 86.1842
lradius 50.7528
lwrist 14.6245
lhand -5.77254 25.2571
lfingers 7.12502
lthumb 20.051 54.2425
rfemur -18.4946 2.07906 18.2921
rtibia 33.0069
rfoot -24.3421 -24.6068
rtoes 1.71883
lfemur -7.29608 -14.4371 -15.7324
ltibia 15.5673
lfoot -19.1222 23.1539
ltoes -3.88344
2631
root -2.69433 15.6213 7.45336 13.9913 4.25104 1.92263
lowerback -3.7294 -1.49835 0.59251
upperback -7.00746 -1.96779 0.909446
thorax -5.14774 -0.985762 0.626868
lowerneck -12.3693 4.27204 9.10279
upperneck 23.427 5.91779 -7.83696
head 9.98051 2.70394 -3.55771
rclavicle 2.65502e-014 -1.74931e-014
rhumerus -54.6517 -7.68056 -71.8799
rradius 38.226
rwrist 1.65811
rhand -2.56481 -20.1674
rfingers 7.12502
rthumb 23.1316 -48.7987
lclavicle 2.65502e-014 -1.74931e-014
lhumerus -68.6293 4.44934 85.7272
lradius 51.5562
lwrist 14.1946
lhand -6.84905 25.4508
lfingers 7.12502
lthumb 19.016 54.5412
rfemur -18.662 1.97347 18.2579
rtibia 33.193
rfoot -24.33 -24.6059
rtoes 1.75898
lfemur -7.25455 -14.8928 -15.7785
ltibia 15.3918
lfoot -19.2686 23.6046
ltoes -3.44826
2632
root -2.67634 15.6168 7.43788 13.9886 4.25218 1.8936
lowerback -3.71477 -1.49616 0.599845
upperback -7.0207 -1.96327 0.943064
thorax -5.16919 -0.982836 0.658271
lowerneck -12.4385 4.24565 9.07908
upperneck 23.4917 5.87887 -7.81812
head 10.0117 2.6843 -3.55243
rclavicle 1.59152e-014 -8.34896e-015
rhumerus -54.2764 -7.69189 -71.4965
rradius 38.7316
rwrist 2.74248
rhand -3.23091 -19.8358
rfingers 7.12502
rthumb 22.4923 -48.5459
lclavicle 1.59152e-014 -8.34896e-015
lhumerus -68.3549 4.32376 85.2999
lradius 52.5222
lwrist 13.7849
lhand -8.00513 25.6736
lfingers 7.12502
lthumb 17.9039 54.8694
rfemur -18.8296 1.87246 18.2238
rtibia 33.3899
rfoot -24.3143 -24.5813
rtoes 1.80824
lfemur -7.19346 -15.3408 -15.8376
ltibia 15.2282
lfoot -19.4226 24.0972
ltoes -3.04447
2633
root -2.65928 15.6123 7.42274 13.9802 4.21938 1.85825
lowerback -3.69548 -1.48297 0.608833
upperback -7.03 -1.94414 0.973842
thorax -5.18934 -0.97279 0.685739
lowerneck -12.5129 4.22262 9.05037
upperneck 23.5537 5.84311 -7.79081
head 10.043 2.66649 -3.54274
rclavicle -1.1281e-014 9.93923e-015
rhumerus -53.893 -7.70927 -71.1042
rradius 39.3431
rwrist 3.62906
rhand -3.9917 -19.4505
rfingers 7.12502
rthumb 21.7619 -48.2472
lclavicle -1.1281e-014 9.93923e-015
lhumerus -68.0853 4.1366 84.9254
lradius 53.6998
lwrist 13.5067
lhand -9.27895 25.9592
lfingers 7.12502
lthumb 16.6779 55.2627
rfemur -19.0002 1.77694 18.196
rtibia 33.5923
rfoot -24.2937 -24.5337
rtoes 1.84169
lfemur -7.12495 -15.7749 -15.8997
ltibia 15.081
lfoot -19.5722 24.6225
ltoes -2.69951
